<svg xmlns="http://www.w3.org/2000/svg" viewBox="2019.901 1733.649 78.683 63.549">
  <defs>
    <style>
      .cls-1 {
        fill: #0cebd9;
      }
    </style>
  </defs>
  <g id="Group_61" data-name="Group 61" transform="translate(2019.901 1733.649)">
    <path id="Path_66" data-name="Path 66" class="cls-1" d="M61.86,41.783a9.552,9.552,0,0,0,1.907.185c14.7,0,16.487-8.674,16.549-9.535.185-1.415-.308-2.153-1.415-.861-.615.738-8.367,4.06-14.764,4.245,0-.062.062-.123.062-.185,3.076-10.95,3.814-31.621,3.876-32.42.123-.8-2.953-2.092-3.507-1.415-.738.861-1.046,3.384-1.661,8.8-.369,3.384-.8,9.966-1.353,15.749a3.054,3.054,0,0,1-2.092.984c-1.723,0-1.846-2.215-1.846-3.937,0-1.661,1.907-19.5,1.661-20.3-.369-1.169-3.507-2.092-4-1.353-.8,1.23-2.03,14.026-2.03,21.593,0,3.876,1.784,6.767,4.675,6.767a8.424,8.424,0,0,0,3.26-.554,51.217,51.217,0,0,1-.8,5.352c-.062.123-.062.308-.123.431-4.675-1.107-8.551-4.06-16.549-4.06-4.491,0-9.412,2.461-9.412,6.706,0,6.644,5.906,11.258,14.4,11.258C54.54,49.289,58.846,47.628,61.86,41.783Zm-23.746-3.63c0-3.076,4.552-3.876,6.706-3.876,4.552,0,8.182,3.691,12.55,5.967-1.907,1.661-4.8,2.768-8.982,2.768C43.774,43.014,38.114,41.23,38.114,38.154Z" transform="translate(-13.199 -0.566)"/>
    <path id="Path_67" data-name="Path 67" class="cls-1" d="M108.124,23.821a8.569,8.569,0,0,0,.923-3.076A2.745,2.745,0,0,0,106.34,18.1a3.286,3.286,0,0,0-3.63,3.568c0,1.6,2.03,3.2,2.03,3.2s-4.06,7.813-8.674,7.813c-3.26,0-3.63-2.092-3.63-2.092,6.213-1.661,8.613-4.245,8.613-8.059,0-2.092-1.661-4-4.614-4C89.853,18.531,88.5,24.5,88.5,30.1a6,6,0,0,0,6.152,5.66c7.259,0,11.689-9.166,11.689-9.166s2.153,1.6,2.153,3.814c0,1.846-1.107,3.2-2.707,3.2-1.784,0-1.6-.984-2.338-1.046a1.5,1.5,0,0,0-1.23.677,1.518,1.518,0,0,0-.185,1.107c.308.8,2.4,1.661,4.675,1.661,2.645,0,6.029-.984,6.029-4.983C112.8,26.959,108.124,23.821,108.124,23.821ZM95.083,21.484c1.661-1.107,2.768.185,2.338,2.338-.369,1.784-1.846,3.507-5.106,4.675C92.314,28.5,92.13,23.514,95.083,21.484Zm11.135,1.23s-1.476-.615-1.476-1.723c0-.923.431-1.292,1.23-1.292.615,0,.923.677.923,1.415A2.507,2.507,0,0,1,106.217,22.714Z" transform="translate(-34.056 -6.965)"/>
    <path id="Path_68" data-name="Path 68" class="cls-1" d="M11.689,24.238c.369-9.781,1.476-16.118,1.476-18.825V5.229c.554-.984,1.23-1.784,2.153-1.784,2.215,0,2.768,2.645,2.768,4,0,2.707-1.415,11.566-1.415,15.2,0,5.045.984,6.4,4.552,6.4a5.391,5.391,0,0,0,4.368-2.153,5.588,5.588,0,0,0,4.983,2.4c4.491,0,8.059-2.4,8.059-12.365a6.194,6.194,0,0,0-.308-1.907,2.286,2.286,0,0,1,1.353-.492l.062-2.03a5.173,5.173,0,0,0-2.4.738A5.083,5.083,0,0,0,33.4,11.135c-7.444,0-8.982,6.4-8.982,11.627v.615h0S23.992,25.9,22.7,25.9c-1.846,0-1.292-2.891-1.046-4.429.492-3.445,1.661-7.751,1.661-13.78,0-3.568-1.107-7.505-6.89-7.505-1.538,0-3.076,1.046-4.491,2.338A7.14,7.14,0,0,0,6.152,0C2.83,0,0,2.03,0,5.537,0,8.859,1.169,9.843,3.2,9.843c1.292,0,2.338-1.969,2.522-2.584,0,0-.123-.984-.431-1.107C4.921,5.967,3.814,7.567,3.2,7.567s-.8-1.415-.8-2.215c0-2.215,1.23-3.137,2.768-3.137,1.784,0,2.461,1.353,2.461,3.26C7.628,8,6.213,22.393,6.09,24.484c-.123,2.03-.492,2.953-.123,3.63s4.552.615,5.106,0C11.873,27.253,11.627,25.961,11.689,24.238ZM34.635,15.2a4.157,4.157,0,0,1-1.846.984c-1.169,0-.923-1.661-.738-2.338a2.469,2.469,0,0,1,.923-.185C33.774,13.6,34.327,14.211,34.635,15.2Zm-5.906,5.967a14,14,0,0,1,1.538-5.6c-.185,1.107.861,3.076,2.4,3.076a4.654,4.654,0,0,0,2.276-.615c0,4.86-1.476,9.043-4,9.043C27.929,27.068,28.729,21.162,28.729,21.162Z"/>
    <path id="Path_69" data-name="Path 69" class="cls-1" d="M19.329,74.1,14.9,77.976l.554.615,1.538-1.353.861.984a1.785,1.785,0,0,0,2.707.062c1.169-1.046.738-1.907.062-2.707Zm.615,3.507c-.615.492-1.169.554-1.661-.062l-.738-.861,1.784-1.538.554.677C20.621,76.622,20.621,77.053,19.945,77.607Z" transform="translate(-5.734 -28.515)"/>
    <path id="Path_70" data-name="Path 70" class="cls-1" d="M31.4,84.546,29.8,83.5l-3.2,4.921.677.431,1.23-1.907,1.046.677-.185,2.645.738.492.246-2.83a1.7,1.7,0,0,0,1.784-.8C32.875,85.961,32.444,85.223,31.4,84.546Zm.062,2.092a.965.965,0,0,1-1.415.369L29,86.33l1.169-1.784.861.554C31.706,85.53,31.829,86.084,31.46,86.637Z" transform="translate(-10.236 -32.132)"/>
    <rect id="Rectangle_77" data-name="Rectangle 77" class="cls-1" width="5.844" height="0.8" transform="matrix(0.345, -0.939, 0.939, 0.345, 25.195, 60.961)"/>
    <path id="Path_71" data-name="Path 71" class="cls-1" d="M56.037,97.7,53.7,93.023l-.861-.123L52.1,98.683l.8.123.554-4.614,2.522,4.983.677.123.677-5.844-.738-.062Z" transform="translate(-20.049 -35.749)"/>
    <path id="Path_72" data-name="Path 72" class="cls-1" d="M71.983,92.9l-4.183.554.123.677,1.661-.185.677,5.106.8-.123-.677-5.106,1.723-.185Z" transform="translate(-26.09 -35.749)"/>
    <rect id="Rectangle_78" data-name="Rectangle 78" class="cls-1" width="0.8" height="5.844" transform="matrix(0.944, -0.329, 0.329, 0.944, 50.247, 55.967)"/>
    <path id="Path_73" data-name="Path 73" class="cls-1" d="M93.537,83.731l2.338,3.691-4.8-2.153-.677.492,3.137,4.921.677-.431-2.522-3.876L96.8,88.591l.554-.369L94.214,83.3Z" transform="translate(-34.787 -32.055)"/>
    <path id="Path_74" data-name="Path 74" class="cls-1" d="M107.135,75.868l.554.492.615-.677,1.107.923a5.35,5.35,0,0,1-.492.861,2.115,2.115,0,0,1-3.2.246c-.984-.861-1.353-1.969-.431-3.076a5.085,5.085,0,0,1,1.292-1.046l-.492-.492a5.636,5.636,0,0,0-1.353,1.107,2.81,2.81,0,0,0,.431,4.183,2.872,2.872,0,0,0,4.183-.246,4.029,4.029,0,0,0,.923-1.846l-2.03-1.661Z" transform="translate(-40.018 -28.13)"/>
  </g>
</svg>
